<svg width="436" height="44" viewBox="0 0 436 44" fill="none" xmlns="http://www.w3.org/2000/svg">
<path d="M58.891 19.0137H44.2333C43.2721 19.0137 40.8521 20.3142 39.3417 21.1697C38.5865 21.5975 38.5865 22.2307 39.3417 22.6585C40.8521 23.514 43.2893 24.8145 44.2333 24.8145H58.891C59.9895 24.8145 60.3843 23.36 60.3843 21.9227C60.3843 20.4853 60.0238 19.0137 58.891 19.0137Z" fill="black"/>
<path d="M100.135 0.156546H82.9716C82.9716 0.156546 81.3926 0.00254081 80.6202 0.378999C79.5904 0.875239 76.6039 3.68156 75.5741 5.0505C74.5443 6.40232 74.6129 8.13061 74.6129 8.13061V42.4567C74.6129 43.5519 76.192 43.9283 77.7539 43.9454C79.3329 43.9454 80.912 43.5861 80.912 42.4567V8.13061C80.912 7.51459 80.8262 6.62478 81.2896 6.11142C81.753 5.59807 82.2851 5.61519 82.5425 5.61519H99.1398C99.9121 5.61519 102.298 5.80341 103.74 7.25791C105.181 8.71241 105.919 10.5262 105.919 13.1957V42.4567C105.919 43.5519 107.498 43.9283 109.077 43.9454C110.657 43.9454 112.236 43.5861 112.236 42.4567V11.9636C112.236 10.8171 112.236 6.84723 109.249 3.63023C106.366 0.533004 102.487 0.173658 100.135 0.139435V0.156546Z" fill="black"/>
<path d="M160.98 11.9636C160.98 11.9636 160.98 11.8096 160.98 11.707V11.4332C160.98 11.4332 160.98 11.3818 160.98 11.3647C160.946 9.75622 160.586 6.41944 157.994 3.63023C155.128 0.533004 151.231 0.173658 148.897 0.139435H131.596C131.596 0.139435 130.017 -0.0145709 129.262 0.361887C128.232 0.858127 125.228 3.66445 124.199 5.03339C123.169 6.38521 123.237 8.1135 123.237 8.1135V32.6175C123.237 32.6175 123.237 32.6688 123.237 32.6859C123.289 34.2773 123.632 37.6312 126.224 40.4204C129.107 43.5176 132.986 43.877 135.338 43.9112H152.639C152.639 43.9112 154.218 44.0481 154.99 43.6888C156.02 43.1925 159.024 40.3691 160.036 39.0173C161.066 37.6654 160.997 35.9372 160.997 35.9372V11.9807L160.98 11.9636ZM154.304 37.9563C153.84 38.4697 153.308 38.4355 153.051 38.4355H136.316C135.561 38.4355 133.175 38.2472 131.733 36.7927C130.292 35.3382 129.554 33.5586 129.537 30.9234V8.13061C129.537 7.51459 129.468 6.62478 129.914 6.11142C130.378 5.59807 130.91 5.61518 131.167 5.61518H147.902C148.657 5.61518 151.043 5.80341 152.484 7.25791C153.926 8.71241 154.664 10.5091 154.664 13.1443V35.9372C154.664 36.5532 154.75 37.443 154.286 37.9563H154.304Z" fill="black"/>
<path d="M348.407 11.4332C348.407 11.4332 348.407 11.3818 348.407 11.3647C348.356 9.75622 348.012 6.41944 345.438 3.63023C342.554 0.533004 338.675 0.173658 336.324 0.139435H318.68C318.68 0.139435 317.084 -0.0145709 316.328 0.361887C315.299 0.858127 312.295 3.66445 311.282 5.03339C310.252 6.38521 310.304 8.1135 310.304 8.1135V42.4396C310.304 43.5348 311.9 43.9112 313.462 43.9283C315.041 43.9283 316.603 43.569 316.603 42.4396V8.13061C316.603 7.51459 316.517 6.62478 316.981 6.11142C317.461 5.59807 317.993 5.61518 318.251 5.61518H335.328C336.101 5.61518 338.469 5.80341 339.928 7.25791C341.353 8.71241 342.108 10.5091 342.108 13.1443V24.7803H328.515C327.571 24.7803 325.133 26.0808 323.623 26.9364C322.868 27.3642 322.868 28.0144 323.623 28.4251C325.133 29.2807 327.571 30.5812 328.515 30.5812H342.108V42.4396C342.108 43.5348 343.687 43.9112 345.266 43.9283C346.845 43.9283 348.407 43.569 348.407 42.4396V11.4332Z" fill="black"/>
<path d="M249.013 3.63023C246.146 0.533004 242.267 0.173658 239.916 0.139435H227.901C227.901 0.139435 226.322 -0.0145709 225.55 0.361887C224.898 0.669898 223.507 1.86772 222.289 3.06554C219.491 0.481669 215.955 0.173658 213.741 0.139435H202.207C202.207 0.139435 200.628 -0.0145709 199.856 0.361887C198.809 0.858127 195.822 3.66445 194.81 5.03339C193.78 6.38521 193.849 8.1135 193.849 8.1135V42.4396C193.849 43.5348 195.428 43.9112 197.007 43.9283C198.586 43.9283 200.165 43.569 200.165 42.4396V8.13061C200.165 7.51459 200.079 6.62478 200.542 6.11142C201.006 5.59807 201.538 5.61518 201.795 5.61518C201.83 5.61518 201.864 5.58096 201.916 5.52963V5.61518H212.746C213.501 5.61518 215.887 5.80341 217.329 7.25791C218.77 8.71241 219.508 10.5091 219.508 13.1443V42.4567C219.508 43.5519 221.087 43.9283 222.666 43.9454C224.245 43.9454 225.825 43.5861 225.825 42.4567V8.13061C225.825 7.51459 225.739 6.62478 226.202 6.11142C226.665 5.59807 227.198 5.61518 227.455 5.61518C227.489 5.61518 227.524 5.58096 227.575 5.52963V5.61518H238.903C239.658 5.61518 242.044 5.80341 243.486 7.25791C244.945 8.71241 245.683 10.5262 245.683 13.1957V42.4567C245.683 43.5519 247.262 43.9283 248.841 43.9454C250.42 43.9454 251.999 43.5861 251.999 42.4567V11.4503C251.965 9.876 251.656 6.47077 249.013 3.64734V3.63023Z" fill="black"/>
<path d="M298.427 3.63023C295.543 0.533004 291.664 0.173658 289.313 0.139435H271.583C271.583 0.139435 270.004 -0.0145709 269.231 0.361887C268.201 0.858127 265.198 3.66445 264.185 5.03339C263.155 6.38521 263.224 8.1135 263.224 8.1135V42.4396C263.224 43.5348 264.803 43.9112 266.382 43.9283C267.961 43.9283 269.54 43.569 269.54 42.4396V8.13061C269.54 7.51459 269.454 6.62478 269.918 6.11142C270.381 5.59807 270.913 5.61518 271.171 5.61518C271.205 5.61518 271.239 5.58096 271.291 5.52963V5.61518H288.334C289.107 5.61518 291.475 5.80341 292.934 7.25791C294.376 8.71241 295.114 10.5262 295.114 13.1957V23.1205C295.114 24.5065 293.947 24.7461 293.363 24.7803H280.954C279.993 24.7803 277.573 26.0808 276.062 26.9364C275.324 27.3642 275.307 28.0144 276.062 28.4251C277.573 29.2807 280.01 30.5812 280.971 30.5812H297.534C298.959 30.5812 299.954 30.2047 300.624 29.486C301.43 28.6476 301.447 27.6722 301.447 26.0124V11.4503C301.447 11.4503 301.447 11.3818 301.447 11.3647C301.396 9.75622 301.053 6.41944 298.478 3.64734L298.427 3.63023Z" fill="black"/>
<path d="M177.337 2.2784C177.337 2.2784 176.359 1.18325 175.363 1.43993C174.368 1.6966 174.282 2.65486 174.282 2.65486V42.4567C174.282 43.5519 175.861 43.9283 177.44 43.9454C179.019 43.9454 180.598 43.5861 180.598 42.4567V8.13061C180.598 5.82053 179.792 4.99916 179.792 4.99916L177.354 2.2784H177.337Z" fill="black"/>
<path d="M435.907 0.960797C435.701 0.0880994 434.637 0.156546 434.637 0.156546H403.88C403.777 0.156546 403.674 0.156546 403.571 0.156546H402.164C402.061 0.156546 401.958 0.156546 401.872 0.19077C400.739 0.259217 399.967 0.413222 399.555 0.78968C398.937 1.37148 397.564 3.06554 397.564 3.06554C397.564 3.06554 396.62 4.10935 396.791 4.81093C396.997 5.66652 398.062 5.61518 398.062 5.61518H402.026C402.026 5.61518 402.129 5.61518 402.181 5.61518H411.981V42.4567C411.981 43.5519 413.543 43.9283 415.139 43.9454C416.718 43.9454 418.297 43.5861 418.297 42.4567V5.61518H429.196C431.29 5.61518 432.578 5.51251 433.161 4.96494C433.779 4.38314 435.152 2.70619 435.152 2.70619C435.152 2.70619 436.096 1.64527 435.942 0.960797H435.907Z" fill="black"/>
<path d="M63.1642 4.96438C63.7821 4.38258 65.1552 2.70563 65.1552 2.70563C65.1552 2.70563 66.0992 1.64471 65.9276 0.960239C65.7216 0.0875417 64.6574 0.155989 64.6574 0.155989H45.4513C45.4513 0.155989 45.417 0.138877 45.3999 0.121765C45.3999 0.121765 42.4305 0.0190947 40.903 1.31959C40.2508 1.86716 32.8532 9.44765 24.546 17.9864C16.3247 9.31076 8.36074 0.908904 8.03464 0.600893C7.36525 -0.0664638 6.42125 0.00198307 6.42125 0.00198307H0.585621C-0.59867 0.00198307 0.379657 1.08002 0.379657 1.08002C0.379657 1.08002 10.5234 11.5524 20.6499 21.9734C10.5234 32.4116 0.379657 42.8668 0.379657 42.8668C0.379657 42.8668 -0.59867 43.9449 0.585621 43.9449H6.42125C6.42125 43.9449 7.36525 44.0133 8.01747 43.346C8.34358 43.0208 16.3075 34.6361 24.5289 25.9605C32.8361 34.4992 40.2336 42.0797 40.8858 42.6273C42.4134 43.9278 45.3827 43.8251 45.3827 43.8251C45.3827 43.8251 45.417 43.8251 45.4342 43.7909H64.6403C64.6403 43.7909 65.7044 43.8422 65.9104 42.9866C66.0649 42.3022 65.138 41.2412 65.138 41.2412C65.138 41.2412 63.7649 39.5472 63.1471 38.9654C62.5807 38.452 61.7053 38.3322 60.9673 38.3322H59.1823C59.1823 38.3322 47.6311 38.3322 45.52 38.3322C43.7865 38.3322 42.8253 37.2542 42.8253 37.2542C42.8253 37.2542 35.9599 30.0159 28.3392 21.9734C35.9599 13.9309 42.8253 6.69267 42.8253 6.69267C42.8253 6.69267 43.7865 5.61463 45.52 5.61463H59.1823C59.8001 5.61463 60.8128 5.61463 60.9673 5.61463C61.7225 5.61463 62.5807 5.49485 63.1471 4.98149L63.1642 4.96438Z" fill="black"/>
<path d="M364.627 13.1615C364.627 10.5091 365.382 8.71241 366.807 7.25791C368.248 5.80341 370.634 5.6323 371.389 5.61518H384.554C386.579 5.59807 387.815 5.4954 388.381 4.96494C388.999 4.38314 390.372 2.70619 390.372 2.70619C390.372 2.70619 391.316 1.64527 391.145 0.960797C390.956 0.0880994 389.874 0.156546 389.874 0.156546H370.377C368.025 0.19077 364.146 0.533004 361.263 3.64734C358.671 6.43655 358.328 9.77333 358.293 11.3818C358.293 11.3989 358.293 11.4161 358.293 11.4503V32.6346C358.293 32.6346 358.293 32.6859 358.293 32.7202C358.328 34.3115 358.688 37.6654 361.263 40.4546C364.129 43.5519 368.008 43.8941 370.377 43.9283C370.377 43.9283 370.411 43.9283 370.428 43.9283H389.874C389.874 43.9283 390.939 43.9797 391.145 43.1241C391.299 42.4225 390.372 41.3787 390.372 41.3787C390.372 41.3787 388.999 39.6846 388.381 39.1199C387.815 38.5724 386.562 38.4868 384.554 38.4697C384.554 38.4697 374.153 38.4697 371.389 38.4697C370.634 38.4697 368.248 38.2815 366.807 36.827C365.365 35.3896 364.627 33.5757 364.627 30.9576V13.1615Z" fill="black"/>
</svg>
